<?xml version="1.0" encoding="iso-8859-1"?>
<!-- Uploaded to: SVG Repo, www.svgrepo.com, Generator: SVG Repo Mixer Tools -->
<svg height="800px" width="800px" version="1.1" id="test" xmlns="http://www.w3.org/2000/svg" xmlns:xlink="http://www.w3.org/1999/xlink"
	 viewBox="0 0 205.446 205.446" xml:space="preserve">
<g>
	<path id="lol" style="fill:#010002;" d="M179.081,137.899l-45.852-20.475L76.211,57.561c-0.501-0.523-1.084-0.938-1.736-1.22
		c-1.725-0.762-3.804-0.569-5.368,0.508c-2.24,1.568-2.995,4.481-1.793,6.914l14.988,30.918L45.461,78.222
		c-1.313-10.772-2.494-21.108-3.514-30.732c-1.568-14.927-5.121-22.851-10.858-24.222c-0.565-0.132-1.134-0.197-1.714-0.197
		c-5.046,0-9.008,5.1-10.067,7.494L0.679,79.718c-0.773,1.754-0.888,3.285-0.336,4.695c0.934,2.358,3.321,3.378,5.834,4.449
		l9.026,3.99l42.341,26.967l-23.56,6.743c-2.602,0.752-4.255,3.257-3.926,5.955c0.225,1.89,1.457,3.554,3.207,4.345
		c0.673,0.301,1.342,0.451,2.072,0.472l45.985,1.396c0.129,3.207,2.051,6.102,5.046,7.444c0.945,0.422,1.915,0.658,3.035,0.712
		c0.744,0.766,1.603,1.36,2.545,1.782c4.026,1.804,8.951,0.064,10.987-3.686c1.525-0.347,2.917-1.106,4.03-2.187l56.138,25.063
		c-0.691,0.705-1.263,1.542-1.675,2.459c-0.934,2.09-0.991,4.413-0.168,6.549c0.805,2.133,2.401,3.822,4.491,4.756
		c0.494,0.225,1.013,0.394,1.528,0.519c0.648,0.154,1.313,0.233,1.976,0.233c3.357,0,6.424-1.99,7.805-5.071
		c0.412-0.916,0.658-1.897,0.723-2.892l6.098,2.731c1.192,0.526,2.333,1.077,3.432,1.607c2.584,1.249,5.025,2.423,7.301,2.963
		c0.909,0.215,1.772,0.326,2.584,0.326c3.543,0,6.163-1.997,8.103-6.342l0.115-0.626
		C206.288,159.949,188.615,142.165,179.081,137.899z M172.586,175.302c-0.802,1.797-2.995,2.666-4.835,1.847
		c-0.891-0.394-1.571-1.12-1.929-2.033c-0.34-0.913-0.315-1.904,0.079-2.795c0.544-1.228,1.732-2.04,3.106-2.133l1.925-0.14
		l1.174,1.517C172.951,172.654,173.14,174.082,172.586,175.302z M35.276,132.395c-0.2-0.086-0.336-0.265-0.358-0.469
		c-0.036-0.301,0.143-0.58,0.422-0.662l34.003-9.738L17.507,88.543l-9.409-4.18c-1.109-0.48-2.981-1.274-3.189-1.721
		c0,0-0.05-0.254,0.297-1.049l18.624-49.17c0.734-1.653,3.819-4.942,6.12-4.395c1.21,0.29,5.293,2.577,7.122,19.97
		c1.145,10.722,2.387,21.555,3.693,32.188l0.161,1.374l51.643,23.066L71.705,61.613c-0.132-0.265-0.047-0.583,0.19-0.748
		c0.104-0.068,0.225-0.107,0.347-0.107l0.44,0.183l57.34,60.207l47.065,21.223c7.401,3.31,23.824,18.76,23.459,31.959
		c-1.21,2.473-2.387,2.813-3.371,2.813c-0.408,0-0.877-0.064-1.424-0.19c-1.761-0.422-3.869-1.442-6.31-2.613
		c-1.142-0.548-2.316-1.117-3.565-1.671l-80.596-35.996l-1.113,1.854c-0.644,1.07-1.772,1.732-3.013,1.772l-1.707,0.057
		l-0.651,1.993c-0.802,1.793-2.999,2.666-4.842,1.854c-0.562-0.247-1.049-0.662-1.446-1.213l-0.827-1.16l-1.417,0.154
		c-0.694,0.061-1.299-0.014-1.89-0.279c-1.732-0.769-2.562-2.727-1.94-4.538l1.084-3.142L35.276,132.395z"/>
</g>
</svg>